<?xml version="1.0" encoding="UTF-8" standalone="no"?>
<!DOCTYPE svg PUBLIC "-//W3C//DTD SVG 1.1//EN" "http://www.w3.org/Graphics/SVG/1.1/DTD/svg11.dtd">
<svg width="100%" height="100%" viewBox="0 0 1200 765" version="1.1" xmlns="http://www.w3.org/2000/svg" xmlns:xlink="http://www.w3.org/1999/xlink" xml:space="preserve" xmlns:serif="http://www.serif.com/" style="fill-rule:evenodd;clip-rule:evenodd;stroke-linejoin:round;stroke-miterlimit:2;">
    <g id="Logo__x2B__text">
        <g>
            <g>
                <g id="HATCH_00000034797297445006190070000000766792142226396585_">
                    <path d="M1092.12,480.67L1035.89,480.67C1032.92,480.67 1030.51,483.08 1030.51,486.05L1030.51,542.32C1030.51,545.29 1032.92,547.7 1035.89,547.7L1092.12,547.7C1095.09,547.7 1097.5,545.29 1097.5,542.32L1097.5,486.05C1097.5,483.08 1095.09,480.67 1092.12,480.67Z" style="fill-rule:nonzero;"/>
                </g>
                <g id="HATCH_00000073719314178407337260000010787112472021247381_">
                    <path d="M1016.07,480.67L959.84,480.67C956.87,480.67 954.46,483.08 954.46,486.05L954.46,542.32C954.46,545.29 956.87,547.7 959.84,547.7L1016.07,547.7C1019.04,547.7 1021.45,545.29 1021.45,542.32L1021.45,486.05C1021.44,483.08 1019.04,480.67 1016.07,480.67Z" style="fill-rule:nonzero;"/>
                </g>
                <g id="HATCH_00000053535375201571164830000017513008071826775475_">
                    <path d="M901.17,480.64L939.29,480.64C942.65,480.64 945.37,483.36 945.37,486.72L945.37,524.87C945.37,528.23 942.65,530.95 939.29,530.95L901.17,530.95C897.81,530.95 895.09,528.23 895.09,524.87L895.09,486.72C895.1,483.36 897.82,480.64 901.17,480.64Z" style="fill-rule:nonzero;"/>
                </g>
                <g id="HATCH_00000067219940314263846640000006268258591549694138_">
                    <path d="M939.97,404.53L883.74,404.53C880.77,404.53 878.36,406.94 878.36,409.91L878.36,466.18C878.36,469.15 880.77,471.56 883.74,471.56L939.97,471.56C942.94,471.56 945.35,469.15 945.35,466.18L945.35,409.91C945.35,406.94 942.94,404.53 939.97,404.53Z" style="fill-rule:nonzero;"/>
                </g>
                <g id="HATCH_00000062895607847073133680000013935785649830808731_">
                    <path d="M939.99,328.44L883.76,328.44C880.79,328.44 878.38,330.85 878.38,333.82L878.38,390.09C878.38,393.06 880.79,395.47 883.76,395.47L939.99,395.47C942.96,395.47 945.37,393.06 945.37,390.09L945.37,333.82C945.36,330.85 942.96,328.44 939.99,328.44Z" style="fill-rule:nonzero;"/>
                </g>
                <g id="HATCH_00000109026003066332479190000018201371739597071755_">
                    <path d="M901.18,269.01L939.3,269.01C942.66,269.01 945.38,271.73 945.38,275.09L945.38,313.24C945.38,316.6 942.66,319.32 939.3,319.32L901.18,319.32C897.82,319.32 895.1,316.6 895.1,313.24L895.1,275.09C895.11,271.73 897.83,269.01 901.18,269.01Z" style="fill-rule:nonzero;"/>
                </g>
                <g id="HATCH_00000044155258247340036460000014508112690344346761_">
                    <path d="M1016.07,252.27L959.84,252.27C956.87,252.27 954.46,254.68 954.46,257.65L954.46,313.92C954.46,316.89 956.87,319.3 959.84,319.3L1016.07,319.3C1019.04,319.3 1021.45,316.89 1021.45,313.92L1021.45,257.65C1021.45,254.68 1019.04,252.27 1016.07,252.27Z" style="fill-rule:nonzero;"/>
                </g>
                <g id="HATCH_00000031896855235471654470000003003864624696689343_">
                    <path d="M1036.59,268.99L1074.71,268.99C1078.07,268.99 1080.79,271.71 1080.79,275.07L1080.79,313.22C1080.79,316.58 1078.07,319.3 1074.71,319.3L1036.59,319.3C1033.23,319.3 1030.51,316.58 1030.51,313.22L1030.51,275.07C1030.51,271.72 1033.23,268.99 1036.59,268.99Z" style="fill-rule:nonzero;"/>
                </g>
                <g id="HATCH_00000168099418194360842000000011203895397242378420_">
                    <path d="M1092.08,328.44L1035.85,328.44C1032.88,328.44 1030.47,330.85 1030.47,333.82L1030.47,390.09C1030.47,393.06 1032.88,395.47 1035.85,395.47L1092.08,395.47C1095.05,395.47 1097.46,393.06 1097.46,390.09L1097.46,333.82C1097.46,330.85 1095.05,328.44 1092.08,328.44Z" style="fill-rule:nonzero;"/>
                </g>
                <g id="HATCH_00000052067492058534757850000001336619611567831740_">
                    <path d="M1002.37,370.32L1015.36,370.32C1018.72,370.32 1021.44,373.04 1021.44,376.4L1021.44,389.4C1021.44,392.76 1018.72,395.48 1015.36,395.48L1002.37,395.48C999.01,395.48 996.29,392.76 996.29,389.4L996.29,376.4C996.3,373.04 999.02,370.32 1002.37,370.32Z" style="fill-rule:nonzero;"/>
                </g>
                <g id="HATCH_00000002386465713149014720000006132487819885448838_">
                    <path d="M960.55,404.53L998.67,404.53C1002.03,404.53 1004.75,407.25 1004.75,410.61L1004.75,448.76C1004.75,452.12 1002.03,454.84 998.67,454.84L960.55,454.84C957.19,454.84 954.47,452.12 954.47,448.76L954.47,410.61C954.48,407.25 957.2,404.53 960.55,404.53Z" style="fill-rule:nonzero;"/>
                </g>
                <g id="HATCH_00000070797704290312952120000004678834640584015022_">
                    <path d="M675.55,480.64L619.32,480.64C616.35,480.64 613.94,483.05 613.94,486.02L613.94,542.29C613.94,545.26 616.35,547.67 619.32,547.67L675.55,547.67C678.52,547.67 680.93,545.26 680.93,542.29L680.93,486.02C680.93,483.05 678.52,480.64 675.55,480.64Z" style="fill-rule:nonzero;"/>
                </g>
                <g id="HATCH_00000000204065239419024920000010990347045818078082_">
                    <path d="M751.62,480.64L695.39,480.64C692.42,480.64 690.01,483.05 690.01,486.02L690.01,542.29C690.01,545.26 692.42,547.67 695.39,547.67L751.62,547.67C754.59,547.67 757,545.26 757,542.29L757,486.02C757,483.05 754.59,480.64 751.62,480.64Z" style="fill-rule:nonzero;"/>
                </g>
                <g id="HATCH_00000106109520766261917720000009142634139820494750_">
                    <path d="M772.15,480.64L810.27,480.64C813.63,480.64 816.35,483.36 816.35,486.72L816.35,524.87C816.35,528.23 813.63,530.95 810.27,530.95L772.15,530.95C768.79,530.95 766.07,528.23 766.07,524.87L766.07,486.72C766.07,483.36 768.79,480.64 772.15,480.64Z" style="fill-rule:nonzero;"/>
                </g>
                <g id="HATCH_00000035509127948495753650000011316598667290863549_">
                    <path d="M827.69,404.53L771.46,404.53C768.49,404.53 766.08,406.94 766.08,409.91L766.08,466.18C766.08,469.15 768.49,471.56 771.46,471.56L827.69,471.56C830.66,471.56 833.07,469.15 833.07,466.18L833.07,409.91C833.07,406.94 830.66,404.53 827.69,404.53Z" style="fill-rule:nonzero;"/>
                </g>
                <g id="HATCH_00000107571951583759078580000009783413675497611452_">
                    <path d="M737.95,404.53L750.94,404.53C754.3,404.53 757.02,407.25 757.02,410.61L757.02,423.61C757.02,426.97 754.3,429.69 750.94,429.69L737.95,429.69C734.59,429.69 731.87,426.97 731.87,423.61L731.87,410.61C731.88,407.25 734.6,404.53 737.95,404.53Z" style="fill-rule:nonzero;"/>
                </g>
                <g id="HATCH_00000044888526029645424570000013418460127471701141_">
                    <path d="M696.07,345.21L734.19,345.21C737.55,345.21 740.27,347.93 740.27,351.29L740.27,389.44C740.27,392.8 737.55,395.52 734.19,395.52L696.07,395.52C692.71,395.52 689.99,392.8 689.99,389.44L689.99,351.29C690,347.93 692.72,345.21 696.07,345.21Z" style="fill-rule:nonzero;"/>
                </g>
                <g id="HATCH_00000006676741839028253760000000585002683849661338_">
                    <path d="M675.55,328.44L619.32,328.44C616.35,328.44 613.94,330.85 613.94,333.82L613.94,390.09C613.94,393.06 616.35,395.47 619.32,395.47L675.55,395.47C678.52,395.47 680.93,393.06 680.93,390.09L680.93,333.82C680.93,330.85 678.52,328.44 675.55,328.44Z" style="fill-rule:nonzero;"/>
                </g>
                <g id="HATCH_00000147219132765541243300000015933231814301561738_">
                    <path d="M636.75,269L674.87,269C678.23,269 680.95,271.72 680.95,275.08L680.95,313.23C680.95,316.59 678.23,319.31 674.87,319.31L636.75,319.31C633.39,319.31 630.67,316.59 630.67,313.23L630.67,275.08C630.67,271.72 633.39,269 636.75,269Z" style="fill-rule:nonzero;"/>
                </g>
                <g id="HATCH_00000152969736561288275740000010983878284162333353_">
                    <path d="M751.61,252.27L695.38,252.27C692.41,252.27 690,254.68 690,257.65L690,313.92C690,316.89 692.41,319.3 695.38,319.3L751.61,319.3C754.58,319.3 756.99,316.89 756.99,313.92L756.99,257.65C756.98,254.68 754.58,252.27 751.61,252.27Z" style="fill-rule:nonzero;"/>
                </g>
                <g id="HATCH_00000126323488425842072350000005728528173787476880_">
                    <path d="M827.66,252.27L771.43,252.27C768.46,252.27 766.05,254.68 766.05,257.65L766.05,313.92C766.05,316.89 768.46,319.3 771.43,319.3L827.66,319.3C830.63,319.3 833.04,316.89 833.04,313.92L833.04,257.65C833.04,254.68 830.63,252.27 827.66,252.27Z" style="fill-rule:nonzero;"/>
                </g>
                <g id="HATCH_00000179641700614742608730000014675919039892955036_">
                    <path d="M529.03,252.27L472.8,252.27C469.83,252.27 467.42,254.68 467.42,257.65L467.42,313.92C467.42,316.89 469.83,319.3 472.8,319.3L529.03,319.3C532,319.3 534.41,316.89 534.41,313.92L534.41,257.65C534.4,254.68 532,252.27 529.03,252.27Z" style="fill-rule:nonzero;"/>
                </g>
                <g id="HATCH_00000149342448167788231300000007431251053930875282_">
                    <path d="M529.03,328.44L472.8,328.44C469.83,328.44 467.42,330.85 467.42,333.82L467.42,390.09C467.42,393.06 469.83,395.47 472.8,395.47L529.03,395.47C532,395.47 534.41,393.06 534.41,390.09L534.41,333.82C534.4,330.85 532,328.44 529.03,328.44Z" style="fill-rule:nonzero;"/>
                </g>
                <g id="HATCH_00000004524044618310001180000007922598108711092611_">
                    <path d="M529.03,404.53L472.8,404.53C469.83,404.53 467.42,406.94 467.42,409.91L467.42,466.18C467.42,469.15 469.83,471.56 472.8,471.56L529.03,471.56C532,471.56 534.41,469.15 534.41,466.18L534.41,409.91C534.4,406.94 532,404.53 529.03,404.53Z" style="fill-rule:nonzero;"/>
                </g>
                <g id="HATCH_00000047019551763373854140000007995288473327707808_">
                    <path d="M549.54,522.53L562.53,522.53C565.89,522.53 568.61,525.25 568.61,528.61L568.61,541.61C568.61,544.97 565.89,547.69 562.53,547.69L549.54,547.69C546.18,547.69 543.46,544.97 543.46,541.61L543.46,528.61C543.47,525.25 546.19,522.53 549.54,522.53Z" style="fill-rule:nonzero;"/>
                </g>
                <g id="HATCH_00000070090143402695370790000007599132864824891838_">
                    <path d="M529.03,480.65L472.8,480.65C469.83,480.65 467.42,483.06 467.42,486.03L467.42,542.3C467.42,545.27 469.83,547.68 472.8,547.68L529.03,547.68C532,547.68 534.41,545.27 534.41,542.3L534.41,486.03C534.4,483.05 532,480.65 529.03,480.65Z" style="fill-rule:nonzero;"/>
                </g>
                <g id="HATCH_00000022525359111865846930000017979763643067877053_">
                    <path d="M453,480.65L396.77,480.65C393.8,480.65 391.39,483.06 391.39,486.03L391.39,542.3C391.39,545.27 393.8,547.68 396.77,547.68L453,547.68C455.97,547.68 458.38,545.27 458.38,542.3L458.38,486.03C458.37,483.05 455.97,480.65 453,480.65Z" style="fill-rule:nonzero;"/>
                </g>
                <g id="HATCH_00000099638947695268056970000017706056910179005840_">
                    <path d="M346.2,480.64L376.2,480.64C379.56,480.64 382.28,483.36 382.28,486.72L382.28,516.74C382.28,520.1 379.56,522.82 376.2,522.82L346.2,522.82C342.84,522.82 340.12,520.1 340.12,516.74L340.12,486.72C340.13,483.37 342.85,480.64 346.2,480.64Z" style="fill-rule:nonzero;"/>
                </g>
                <g id="HATCH_00000057854551061559319110000005370665322684999357_">
                    <path d="M376.9,404.53L320.67,404.53C317.7,404.53 315.29,406.94 315.29,409.91L315.29,466.18C315.29,469.15 317.7,471.56 320.67,471.56L376.9,471.56C379.87,471.56 382.28,469.15 382.28,466.18L382.28,409.91C382.28,406.94 379.87,404.53 376.9,404.53Z" style="fill-rule:nonzero;"/>
                </g>
                <g id="HATCH_00000133492780502780047370000010109107263949488035_">
                    <path d="M376.9,328.44L320.67,328.44C317.7,328.44 315.29,330.85 315.29,333.82L315.29,390.09C315.29,393.06 317.7,395.47 320.67,395.47L376.9,395.47C379.87,395.47 382.28,393.06 382.28,390.09L382.28,333.82C382.28,330.85 379.87,328.44 376.9,328.44Z" style="fill-rule:nonzero;"/>
                </g>
                <g id="HATCH_00000094587577045175932350000002006569580036160645_">
                    <path d="M376.9,252.28L320.67,252.28C317.7,252.28 315.29,254.69 315.29,257.66L315.29,313.93C315.29,316.9 317.7,319.31 320.67,319.31L376.9,319.31C379.87,319.31 382.28,316.9 382.28,313.93L382.28,257.66C382.28,254.69 379.87,252.28 376.9,252.28Z" style="fill-rule:nonzero;"/>
                </g>
                <g id="HATCH_00000111910438040680008040000001803957140513900474_">
                    <path d="M213.35,480.64L157.12,480.64C154.15,480.64 151.74,483.05 151.74,486.02L151.74,542.29C151.74,545.26 154.15,547.67 157.12,547.67L213.35,547.67C216.32,547.67 218.73,545.26 218.73,542.29L218.73,486.02C218.73,483.05 216.32,480.64 213.35,480.64Z" style="fill-rule:nonzero;"/>
                </g>
                <g id="HATCH_00000127746117193466982390000006629411766495711902_">
                    <path d="M213.35,404.53L157.12,404.53C154.15,404.53 151.74,406.94 151.74,409.91L151.74,466.18C151.74,469.15 154.15,471.56 157.12,471.56L213.35,471.56C216.32,471.56 218.73,469.15 218.73,466.18L218.73,409.91C218.73,406.94 216.32,404.53 213.35,404.53Z" style="fill-rule:nonzero;"/>
                </g>
                <g id="HATCH_00000069365468108001337130000013092677760324960934_">
                    <path d="M213.35,328.44L157.12,328.44C154.15,328.44 151.74,330.85 151.74,333.82L151.74,390.09C151.74,393.06 154.15,395.47 157.12,395.47L213.35,395.47C216.32,395.47 218.73,393.06 218.73,390.09L218.73,333.82C218.73,330.85 216.32,328.44 213.35,328.44Z" style="fill-rule:nonzero;"/>
                </g>
                <g id="HATCH_00000149346070289307810030000002851577692445386119_">
                    <path d="M233.74,252.28L263.74,252.28C267.1,252.28 269.82,255 269.82,258.36L269.82,288.38C269.82,291.74 267.1,294.46 263.74,294.46L233.74,294.46C230.38,294.46 227.66,291.74 227.66,288.38L227.66,258.36C227.67,255 230.39,252.28 233.74,252.28Z" style="fill-rule:nonzero;"/>
                </g>
                <g id="HATCH_00000095298813352739667940000011734292451823232932_">
                    <path d="M213.35,252.28L157.12,252.28C154.15,252.28 151.74,254.69 151.74,257.66L151.74,313.93C151.74,316.9 154.15,319.31 157.12,319.31L213.35,319.31C216.32,319.31 218.73,316.9 218.73,313.93L218.73,257.66C218.73,254.69 216.32,252.28 213.35,252.28Z" style="fill-rule:nonzero;"/>
                </g>
                <g id="HATCH_00000036944008069343631250000010464956299429237939_">
                    <path d="M106.58,252.28L136.58,252.28C139.94,252.28 142.66,255 142.66,258.36L142.66,288.38C142.66,291.74 139.94,294.46 136.58,294.46L106.58,294.46C103.22,294.46 100.5,291.74 100.5,288.38L100.5,258.36C100.5,255 103.22,252.28 106.58,252.28Z" style="fill-rule:nonzero;"/>
                </g>
                <g id="HATCH_00000067948146044563468900000011331781050486924182_">
                    <path d="M233.86,176.14L246.85,176.14C250.21,176.14 252.93,178.86 252.93,182.22L252.93,195.22C252.93,198.58 250.21,201.3 246.85,201.3L233.86,201.3C230.5,201.3 227.78,198.58 227.78,195.22L227.78,182.22C227.78,178.86 230.5,176.14 233.86,176.14Z" style="fill-rule:nonzero;"/>
                </g>
                <g id="HATCH_00000129906104662367704660000010725545741619345053_">
                    <path d="M213.35,176.14L157.12,176.14C154.15,176.14 151.74,178.55 151.74,181.52L151.74,237.79C151.74,240.76 154.15,243.17 157.12,243.17L213.35,243.17C216.32,243.17 218.73,240.76 218.73,237.79L218.73,181.52C218.73,178.55 216.32,176.14 213.35,176.14Z" style="fill-rule:nonzero;"/>
                </g>
                <g id="HATCH_00000142135655061839257870000015156835881959453590_">
                    <path d="M182.65,124.85L212.65,124.85C216.01,124.85 218.73,127.57 218.73,130.93L218.73,160.95C218.73,164.31 216.01,167.03 212.65,167.03L182.65,167.03C179.29,167.03 176.57,164.31 176.57,160.95L176.57,130.93C176.58,127.57 179.3,124.85 182.65,124.85Z" style="fill-rule:nonzero;"/>
                </g>
                <g id="HATCH_00000141443777633698899420000017913666261645940616_">
                    <path d="M289.39,100L233.16,100C230.19,100 227.78,102.41 227.78,105.38L227.78,161.65C227.78,164.62 230.19,167.03 233.16,167.03L289.39,167.03C292.36,167.03 294.77,164.62 294.77,161.65L294.77,105.38C294.77,102.41 292.36,100 289.39,100Z" style="fill-rule:nonzero;"/>
                </g>
            </g>
            <g id="text_outlined_00000037654171388592490480000004103626446602117049_">
                <path d="M193.6,605.39L178.98,605.39L178.98,663.89L166.38,663.89L166.38,605.39L151.76,605.39L151.76,593.29L193.6,593.29L193.6,605.39Z" style="fill-rule:nonzero;"/>
                <path d="M258.23,663.89L221.13,663.89L221.13,593.29L257.33,593.29L257.33,605.39L233.74,605.39L233.74,620.32L249.57,620.32L249.57,632.22L233.74,632.22L233.74,651.79L258.24,651.79L258.23,663.89Z" style="fill-rule:nonzero;"/>
                <path d="M325.79,646.95C322.46,658.55 316.31,665 305.52,665C289.89,665 282.63,648.96 282.63,628.69C282.63,608.32 290.09,592.18 305.72,592.18C317.72,592.18 322.96,599.84 325.68,610.03L313.88,613.86C312.06,607.41 310.15,604.78 305.51,604.78C298.75,604.78 295.53,613.45 295.53,628.48C295.53,643.51 298.86,652.38 305.71,652.38C310.05,652.38 312.26,649.96 314.89,642.29L325.79,646.95Z" style="fill-rule:nonzero;"/>
                <path d="M395.36,663.89L382.76,663.89L382.76,633.43L366.63,633.43L366.63,663.89L354.03,663.89L354.03,593.29L366.63,593.29L366.63,621.13L382.76,621.13L382.76,593.29L395.36,593.29L395.36,663.89Z" style="fill-rule:nonzero;"/>
                <path d="M468.66,663.89L456.56,663.89L443.55,632.42C441.73,627.98 439.52,622.23 438.21,618.1C438.31,622.44 438.41,629.7 438.41,634.14L438.41,663.89L426.92,663.89L426.92,593.29L439.62,593.29L452.02,624.25C453.73,628.49 456.26,635.04 457.57,638.98C457.47,634.64 457.17,626.98 457.17,622.54L457.17,593.29L468.67,593.29L468.66,663.89Z" style="fill-rule:nonzero;"/>
                <rect x="500.72" y="593.29" width="12.6" height="70.6" style="fill-rule:nonzero;"/>
                <path d="M586.01,646.95C582.68,658.55 576.53,665 565.74,665C550.11,665 542.85,648.96 542.85,628.69C542.85,608.32 550.31,592.18 565.94,592.18C577.94,592.18 583.18,599.84 585.9,610.03L574.1,613.86C572.28,607.41 570.37,604.78 565.73,604.78C558.97,604.78 555.75,613.45 555.75,628.48C555.75,643.51 559.08,652.38 565.93,652.38C570.27,652.38 572.48,649.96 575.11,642.29L586.01,646.95Z" style="fill-rule:nonzero;"/>
                <path d="M658.51,663.89L645.5,663.89L642.17,649.17L626.34,649.17L623.01,663.89L610.1,663.89L628.15,593.29L640.45,593.29L658.51,663.89ZM639.45,637.37L637.53,629C636.32,623.55 634.71,615.39 634.2,611.86C633.7,615.49 632.28,623.05 630.97,628.8L629.05,637.37L639.45,637.37Z" style="fill-rule:nonzero;"/>
                <path d="M721.02,663.89L686.34,663.89L686.34,593.29L698.94,593.29L698.94,651.58L721.02,651.58L721.02,663.89Z" style="fill-rule:nonzero;"/>
                <path d="M830.62,639.28C830.62,654.21 824.57,665 811.97,665C798.86,665 792.51,651.28 792.51,628.59C792.51,606.2 799.06,592.18 812.27,592.18C821.45,592.18 825.98,598.53 829.01,607.31L822.66,610.13C819.74,601.46 816.91,598.73 812.07,598.73C804.21,598.73 799.57,609.12 799.57,628.58C799.57,648.25 804.41,658.43 812.37,658.43C819.93,658.43 823.76,652.18 823.76,639.97L823.76,634.62L814.28,634.62L814.28,627.96L830.61,627.96L830.61,639.28L830.62,639.28Z" style="fill-rule:nonzero;"/>
                <path d="M896.05,663.89L888.29,663.89L877.7,631.82C876.79,631.92 869.23,631.92 867.92,631.92L867.92,663.89L860.86,663.89L860.86,593.29L877.8,593.29C887.98,593.29 895.85,599.34 895.85,612.15C895.85,621.43 891.52,627.38 884.96,630.1L896.05,663.89ZM888.79,612.56C888.79,604.29 884.66,599.85 877.5,599.85L867.92,599.85L867.92,625.57L877.1,625.57C884.76,625.57 888.79,621.03 888.79,612.56Z" style="fill-rule:nonzero;"/>
                <path d="M963.6,628.59C963.6,651.38 956.64,665 943.33,665C930.02,665 923.26,651.49 923.26,628.59C923.26,605.8 930.12,592.18 943.43,592.18C956.75,592.18 963.6,605.7 963.6,628.59ZM956.54,628.59C956.54,608.92 951.2,598.74 943.23,598.74C935.37,598.74 930.32,608.83 930.32,628.59C930.32,648.26 935.56,658.44 943.53,658.44C951.4,658.44 956.54,648.36 956.54,628.59Z" style="fill-rule:nonzero;"/>
                <path d="M1030.65,642.71C1030.65,656.83 1023.89,665 1012.2,665C1000.6,665 993.95,656.93 993.95,642.81L993.95,593.29L1000.91,593.29L1000.91,642.61C1000.91,652.8 1004.94,658.44 1012.51,658.44C1019.97,658.44 1023.6,652.89 1023.6,642.71L1023.6,593.29L1030.66,593.29L1030.65,642.71Z" style="fill-rule:nonzero;"/>
                <path d="M1097.5,612.86C1097.5,626.88 1088.93,633.43 1078.34,633.43L1069.97,633.43L1069.97,663.89L1062.91,663.89L1062.91,593.29L1079.24,593.29C1089.64,593.29 1097.5,599.34 1097.5,612.86ZM1090.44,613.26C1090.44,604.49 1086.31,599.85 1078.95,599.85L1069.98,599.85L1069.98,626.88L1078.65,626.88C1086.31,626.88 1090.44,622.14 1090.44,613.26Z" style="fill-rule:nonzero;"/>
            </g>
        </g>
    </g>
</svg>
